<svg width="40" height="26" viewBox="0 0 40 26" fill="none" xmlns="http://www.w3.org/2000/svg">
<rect width="39.9568" height="25.7414" fill="white"/>
<path d="M12.9237 9.49887C13.1903 9.16544 13.3712 8.71775 13.3235 8.26025C12.9332 8.27966 12.457 8.5177 12.1813 8.85139C11.9338 9.13715 11.7147 9.60359 11.7718 10.0419C12.2099 10.0799 12.6475 9.82294 12.9237 9.49887Z" fill="#000008"/>
<path d="M13.3185 10.1275C12.6823 10.0896 12.1415 10.4885 11.8377 10.4885C11.5337 10.4885 11.0685 10.1466 10.5653 10.1558C9.91041 10.1654 9.30273 10.5357 8.9704 11.1246C8.28684 12.3028 8.79001 14.0504 9.45473 15.0099C9.77753 15.4847 10.1666 16.0074 10.6792 15.9886C11.1635 15.9696 11.3534 15.675 11.9421 15.675C12.5304 15.675 12.7014 15.9886 13.2141 15.9791C13.7458 15.9696 14.0781 15.5041 14.4009 15.0289C14.7713 14.4878 14.9229 13.9653 14.9324 13.9366C14.9229 13.9271 13.9072 13.5374 13.8977 12.3691C13.8882 11.3908 14.6952 10.9255 14.7332 10.8966C14.2774 10.2226 13.5654 10.1466 13.3185 10.1275Z" fill="#000008"/>
<path d="M18.8576 8.80354C20.2403 8.80354 21.2031 9.75663 21.2031 11.1443C21.2031 12.5369 20.2205 13.4949 18.823 13.4949H17.2921V15.9294H16.186V8.80354L18.8576 8.80354ZM17.2921 12.5665H18.5612C19.5242 12.5665 20.0723 12.048 20.0723 11.1492C20.0723 10.2505 19.5242 9.73691 18.5662 9.73691H17.2921V12.5665Z" fill="#000008"/>
<path d="M21.4921 14.4529C21.4921 13.5442 22.1884 12.9862 23.4231 12.9171L24.8452 12.8332V12.4332C24.8452 11.8554 24.455 11.5097 23.8033 11.5097C23.1859 11.5097 22.8007 11.806 22.7069 12.2702H21.6996C21.7588 11.3319 22.5587 10.6406 23.8427 10.6406C25.102 10.6406 25.9068 11.3072 25.9068 12.3492V15.9294H24.8846V15.0751H24.86C24.5588 15.6529 23.902 16.0183 23.2205 16.0183C22.2033 16.0183 21.4921 15.3862 21.4921 14.4529ZM24.8452 13.9838V13.5739L23.5661 13.6529C22.9291 13.6974 22.5686 13.9789 22.5686 14.4233C22.5686 14.8776 22.9439 15.1739 23.5168 15.1739C24.2624 15.1739 24.8452 14.6603 24.8452 13.9838Z" fill="#000008"/>
<path d="M26.8719 17.8406V16.9763C26.9508 16.9961 27.1285 16.9961 27.2175 16.9961C27.7113 16.9961 27.978 16.7887 28.1409 16.2554C28.1409 16.2455 28.2348 15.9393 28.2348 15.9344L26.3583 10.7344H27.5137L28.8275 14.9616H28.8471L30.1608 10.7344H31.2867L29.3409 16.201C28.8966 17.4603 28.383 17.8652 27.3065 17.8652C27.2175 17.8652 26.9508 17.8553 26.8719 17.8406Z" fill="#000008"/>
</svg>
