<svg width="40" height="26" viewBox="0 0 40 26" fill="none" xmlns="http://www.w3.org/2000/svg">
<rect width="39.9568" height="25.7414" fill="white"/>
<path d="M19.1098 15.9559H18.2111V8.96284H20.5936C21.1974 8.96284 21.7123 9.16411 22.1336 9.56666C22.5642 9.96921 22.7795 10.4607 22.7795 11.0411C22.7795 11.6356 22.5642 12.127 22.1336 12.5249C21.717 12.9228 21.2021 13.1194 20.5936 13.1194H19.1098V15.9559ZM19.1098 9.8241V12.2628H20.6123C20.9681 12.2628 21.2676 12.1411 21.5017 11.9024C21.7404 11.6636 21.8621 11.3734 21.8621 11.0458C21.8621 10.7228 21.7404 10.4373 21.5017 10.1986C21.2676 9.95048 20.9727 9.82878 20.6123 9.82878H19.1098V9.8241Z" fill="#3C4043"/>
<path d="M25.1292 11.013C25.7938 11.013 26.3181 11.1909 26.7019 11.5466C27.0857 11.9024 27.2776 12.3892 27.2776 13.007V15.9559H26.421V15.2913H26.3836C26.0138 15.8389 25.5177 16.1104 24.8998 16.1104C24.3709 16.1104 23.9309 15.9559 23.5751 15.6423C23.2194 15.3287 23.0415 14.9402 23.0415 14.4721C23.0415 13.976 23.2288 13.5828 23.6032 13.2926C23.9777 12.9977 24.4785 12.8526 25.1011 12.8526C25.6347 12.8526 26.0747 12.9509 26.4164 13.1475V12.9415C26.4164 12.6279 26.2947 12.3658 26.0466 12.1458C25.7985 11.9258 25.5083 11.8181 25.176 11.8181C24.6751 11.8181 24.2773 12.0287 23.987 12.4547L23.196 11.9585C23.6313 11.3266 24.2773 11.013 25.1292 11.013ZM23.9683 14.4862C23.9683 14.7202 24.0666 14.9168 24.2679 15.0713C24.4645 15.2257 24.6985 15.3053 24.9653 15.3053C25.3445 15.3053 25.6815 15.1649 25.9764 14.884C26.2713 14.6032 26.421 14.2755 26.421 13.8964C26.1402 13.6764 25.7517 13.564 25.2509 13.564C24.8858 13.564 24.5815 13.653 24.3381 13.8262C24.09 14.0087 23.9683 14.2287 23.9683 14.4862Z" fill="#3C4043"/>
<path d="M32.1644 11.1675L29.1687 18.0576H28.2419L29.3559 15.647L27.3806 11.1675H28.3589L29.7819 14.6032H29.8006L31.1861 11.1675H32.1644Z" fill="#3C4043"/>
<path d="M15.535 12.553C15.535 12.26 15.5088 11.9796 15.4601 11.71H11.6931V13.2546L13.8626 13.2551C13.7746 13.7691 13.4914 14.2072 13.0575 14.4993V15.5014H14.3489C15.103 14.8035 15.535 13.7719 15.535 12.553Z" fill="#4285F4"/>
<path d="M13.058 14.4993C12.6985 14.7418 12.2356 14.8836 11.694 14.8836C10.6479 14.8836 9.76038 14.1787 9.44256 13.2285H8.11042V14.262C8.7704 15.5717 10.1269 16.4704 11.694 16.4704C12.7771 16.4704 13.6871 16.1142 14.3494 15.501L13.058 14.4993Z" fill="#34A853"/>
<path d="M9.31707 12.4617C9.31707 12.1949 9.36154 11.937 9.44252 11.6945V10.661H8.11038C7.83749 11.2026 7.68396 11.8139 7.68396 12.4617C7.68396 13.1095 7.83796 13.7208 8.11038 14.2624L9.44252 13.2289C9.36154 12.9864 9.31707 12.7285 9.31707 12.4617Z" fill="#FABB05"/>
<path d="M11.694 10.0394C12.2852 10.0394 12.8146 10.243 13.2326 10.6409L14.377 9.49739C13.6819 8.85004 12.7757 8.45264 11.694 8.45264C10.1274 8.45264 8.77036 9.35134 8.11038 10.661L9.44252 11.6945C9.76034 10.7443 10.6479 10.0394 11.694 10.0394Z" fill="#E94235"/>
</svg>
