<svg width="40" height="26" viewBox="0 0 40 26" fill="none" xmlns="http://www.w3.org/2000/svg">
<rect width="39.9568" height="25.7414" fill="white"/>
<path d="M22.8486 7.58446H16.9656V18.1565H22.8486V7.58446Z" fill="#FF5F00"/>
<path d="M17.3391 12.8705C17.3382 11.8523 17.5689 10.8473 18.0138 9.93147C18.4587 9.01565 19.1062 8.21307 19.9071 7.58446C18.9153 6.80484 17.7241 6.32001 16.4697 6.18537C15.2153 6.05074 13.9484 6.27174 12.8137 6.82311C11.679 7.37448 10.7223 8.23399 10.0529 9.30338C9.38363 10.3728 9.02869 11.6089 9.02869 12.8705C9.02869 14.1321 9.38363 15.3682 10.0529 16.4376C10.7223 17.507 11.679 18.3665 12.8137 18.9178C13.9484 19.4692 15.2153 19.6902 16.4697 19.5556C17.7241 19.4209 18.9153 18.9361 19.9071 18.1565C19.1062 17.5279 18.4588 16.7253 18.0138 15.8095C17.5689 14.8937 17.3382 13.8886 17.3391 12.8705Z" fill="#EB001B"/>
<path d="M30.7852 12.8705C30.7853 14.132 30.4304 15.3682 29.7611 16.4375C29.0918 17.5069 28.1351 18.3664 27.0004 18.9178C25.8658 19.4692 24.5988 19.6902 23.3445 19.5556C22.0901 19.4209 20.8989 18.9361 19.9071 18.1565C20.7074 17.5272 21.3543 16.7245 21.7991 15.8089C22.2439 14.8932 22.4751 13.8885 22.4751 12.8705C22.4751 11.8525 22.2439 10.8478 21.7991 9.93209C21.3543 9.01642 20.7074 8.2137 19.9071 7.58446C20.8989 6.80484 22.0901 6.32 23.3445 6.18537C24.5988 6.05074 25.8658 6.27174 27.0004 6.82313C28.1351 7.37451 29.0918 8.23401 29.7611 9.3034C30.4304 10.3728 30.7853 11.6089 30.7852 12.8705Z" fill="#F79E1B"/>
<path d="M30.1438 17.0367V16.8203H30.231V16.7762H30.0088V16.8203H30.0961V17.0367H30.1438ZM30.5753 17.0367V16.7758H30.5071L30.4288 16.9553L30.3504 16.7758H30.2822V17.0367H30.3303V16.8399L30.4038 17.0096H30.4537L30.5272 16.8395V17.0367H30.5753Z" fill="#F79E1B"/>
</svg>
