<svg width="40" height="26" viewBox="0 0 40 26" fill="none" xmlns="http://www.w3.org/2000/svg">
<rect width="39.9568" height="25.7414" fill="white"/>
<path fill-rule="evenodd" clip-rule="evenodd" d="M8.74074 9.12535H6.43708C6.27944 9.12535 6.14536 9.23991 6.12078 9.39546L5.18906 15.3021C5.17054 15.4186 5.26082 15.5237 5.37905 15.5237H6.47884C6.63648 15.5237 6.77056 15.4091 6.79514 15.2533L7.04644 13.6602C7.07068 13.5042 7.20508 13.3898 7.36239 13.3898H8.09165C9.60916 13.3898 10.4849 12.6555 10.7137 11.2005C10.8168 10.564 10.7181 10.0638 10.4199 9.71342C10.0925 9.3289 9.51173 9.12535 8.74074 9.12535ZM9.00652 11.2827C8.88057 12.1092 8.24897 12.1092 7.63827 12.1092H7.29064L7.53452 10.5655C7.549 10.4723 7.62984 10.4036 7.72416 10.4036H7.88349C8.29949 10.4036 8.69195 10.4036 8.89476 10.6407C9.01556 10.7822 9.05266 10.9923 9.00652 11.2827ZM15.627 11.2562H14.5238C14.4298 11.2562 14.3486 11.3249 14.3341 11.4183L14.2853 11.7267L14.2081 11.615C13.9693 11.2683 13.4368 11.1525 12.9053 11.1525C11.6861 11.1525 10.645 12.0757 10.4422 13.3708C10.3368 14.0167 10.4866 14.6343 10.8531 15.0651C11.1893 15.4612 11.6704 15.6263 12.2426 15.6263C13.2248 15.6263 13.7696 14.9947 13.7696 14.9947L13.7204 15.3013C13.7018 15.4185 13.7921 15.5235 13.9096 15.5235H14.9034C15.0614 15.5235 15.1947 15.409 15.2196 15.2531L15.8159 11.4778C15.8348 11.3617 15.7448 11.2562 15.627 11.2562ZM14.0892 13.403C13.9827 14.0332 13.4825 14.4562 12.8446 14.4562C12.5243 14.4562 12.2682 14.3535 12.1039 14.1588C11.9408 13.9655 11.8788 13.6903 11.9307 13.3838C12.0302 12.759 12.5388 12.3223 13.167 12.3223C13.4802 12.3223 13.7349 12.4262 13.9026 12.6226C14.0706 12.821 14.1374 13.0978 14.0892 13.403ZM20.3937 11.256H21.5023C21.6576 11.256 21.7481 11.4301 21.6599 11.5574L17.9728 16.8789C17.9131 16.9651 17.8148 17.0164 17.7097 17.0164H16.6025C16.4466 17.0164 16.3556 16.8409 16.4458 16.7132L17.5939 15.0929L16.3729 11.5099C16.3306 11.3854 16.4226 11.256 16.5551 11.256H17.6444C17.7859 11.256 17.9108 11.3489 17.9516 11.4843L18.5996 13.6483L20.1287 11.3964C20.1885 11.3085 20.288 11.256 20.3937 11.256Z" fill="#253B80"/>
<path fill-rule="evenodd" clip-rule="evenodd" d="M32.4135 15.3015L33.3589 9.28692C33.3734 9.19356 33.4543 9.12482 33.5483 9.12451H34.6127C34.7302 9.12451 34.8205 9.22987 34.8019 9.34646L33.8696 15.2527C33.8453 15.4086 33.7112 15.5232 33.5533 15.5232H32.6028C32.4852 15.5232 32.395 15.4181 32.4135 15.3015ZM25.173 9.12482H22.8689C22.7116 9.12482 22.5775 9.23938 22.5529 9.39493L21.6212 15.3015C21.6027 15.4181 21.6929 15.5232 21.8106 15.5232H22.9928C23.1027 15.5232 23.1967 15.4431 23.2139 15.3339L23.4782 13.6597C23.5025 13.5036 23.6369 13.3892 23.7942 13.3892H24.5231C26.0409 13.3892 26.9165 12.655 27.1455 11.2C27.2488 10.5634 27.1495 10.0633 26.8515 9.71289C26.5243 9.32838 25.944 9.12482 25.173 9.12482ZM25.4387 11.2821C25.3131 12.1087 24.6815 12.1087 24.0704 12.1087H23.7231L23.9674 10.565C23.9819 10.4718 24.062 10.4031 24.1566 10.4031H24.3159C24.7317 10.4031 25.1245 10.4031 25.3271 10.6401C25.4481 10.7816 25.4849 10.9918 25.4387 11.2821ZM32.0586 11.2556H30.9562C30.8614 11.2556 30.781 11.3244 30.7668 11.4177L30.718 11.7262L30.6405 11.6144C30.4017 11.2678 29.8695 11.152 29.338 11.152C28.1188 11.152 27.078 12.0752 26.8752 13.3702C26.7701 14.0161 26.9193 14.6338 27.2858 15.0646C27.6227 15.4607 28.1031 15.6257 28.6753 15.6257C29.6575 15.6257 30.2022 14.9942 30.2022 14.9942L30.1531 15.3008C30.1345 15.418 30.2248 15.523 30.3431 15.523H31.3364C31.4937 15.523 31.6277 15.4085 31.6523 15.2526L32.2489 11.4773C32.2671 11.3611 32.1769 11.2556 32.0586 11.2556ZM30.521 13.4025C30.4151 14.0326 29.9143 14.4557 29.2762 14.4557C28.9565 14.4557 28.6999 14.3529 28.5355 14.1583C28.3724 13.965 28.3112 13.6897 28.3625 13.3833C28.4624 12.7585 28.9704 12.3217 29.5986 12.3217C29.9119 12.3217 30.1665 12.4257 30.3344 12.6221C30.503 12.8205 30.5697 13.0973 30.521 13.4025Z" fill="#179BD7"/>
</svg>
