<svg width="40" height="26" viewBox="0 0 40 26" fill="none" xmlns="http://www.w3.org/2000/svg">
<rect width="39.9568" height="25.7414" fill="white"/>
<path d="M19.7341 8.67549L17.8703 17.3875H15.6167L17.4807 8.67549H19.7341ZM29.2159 14.3008L30.4024 11.0292L31.0851 14.3008H29.2159ZM31.7304 17.3875H33.8149L31.9959 8.67549H30.0718C29.6394 8.67549 29.2746 8.92696 29.1122 9.31465L25.7311 17.3875H28.0978L28.5676 16.0865H31.459L31.7304 17.3875ZM25.8486 14.5429C25.8582 12.2436 22.6688 12.117 22.6908 11.0899C22.6974 10.7769 22.9955 10.4449 23.6465 10.3597C23.97 10.3175 24.8592 10.2853 25.869 10.7499L26.2644 8.90242C25.722 8.70555 25.0241 8.51611 24.1561 8.51611C21.9287 8.51611 20.3608 9.70041 20.3476 11.3962C20.3335 12.6503 21.4668 13.3501 22.3208 13.767C23.1987 14.1941 23.4938 14.4677 23.4899 14.8496C23.4841 15.4344 22.7895 15.692 22.1415 15.7022C21.0083 15.7201 20.3506 15.3964 19.8264 15.1521L19.4181 17.061C19.9445 17.3028 20.9164 17.5129 21.9248 17.5237C24.292 17.5237 25.8409 16.354 25.8486 14.5429ZM16.5137 8.67549L12.8624 17.3875H10.4797L8.68299 10.4347C8.5738 10.0065 8.47895 9.84986 8.14723 9.66926C7.60596 9.37559 6.71119 9.09958 5.92395 8.92862L5.97772 8.67549H9.81242C10.301 8.67549 10.7408 9.00086 10.8517 9.56365L11.8008 14.6053L14.1459 8.67549H16.5137Z" fill="#1434CB"/>
</svg>
